<?xml version="1.0" encoding="utf-8"?>
<!-- Generator: Adobe Illustrator 17.0.0, SVG Export Plug-In . SVG Version: 6.00 Build 0)  -->
<!DOCTYPE svg PUBLIC "-//W3C//DTD SVG 1.1//EN" "http://www.w3.org/Graphics/SVG/1.1/DTD/svg11.dtd" [
	<!ENTITY ns_extend "http://ns.adobe.com/Extensibility/1.0/">
	<!ENTITY ns_ai "http://ns.adobe.com/AdobeIllustrator/10.0/">
	<!ENTITY ns_graphs "http://ns.adobe.com/Graphs/1.0/">
	<!ENTITY ns_vars "http://ns.adobe.com/Variables/1.0/">
	<!ENTITY ns_imrep "http://ns.adobe.com/ImageReplacement/1.0/">
	<!ENTITY ns_sfw "http://ns.adobe.com/SaveForWeb/1.0/">
	<!ENTITY ns_custom "http://ns.adobe.com/GenericCustomNamespace/1.0/">
	<!ENTITY ns_adobe_xpath "http://ns.adobe.com/XPath/1.0/">
]>
<svg version="1.1" id="Слой_1" xmlns:x="&ns_extend;" xmlns:i="&ns_ai;" xmlns:graph="&ns_graphs;"
	 xmlns="http://www.w3.org/2000/svg" xmlns:xlink="http://www.w3.org/1999/xlink" x="0px" y="0px" width="750px" height="450px"
	 viewBox="0 0 758.25 453" enable-background="new 0 0 758.25 453" xml:space="preserve">
		<path fill-rule="evenodd" clip-rule="evenodd" fill="#865B5B" d="M0,0v453h758.25V0H0z M710.531,406.75
			c-5.014,6.898-45.619,6.621-45.619,6.621s-192.614-1.992-237.315-1.88c-44.7,0.113-365.474,4.642-381.371-4.361
			c-6.281-4.054-5.316-27.274-5.316-27.274s4.474-126.616,4.937-140.75c0.463-14.134-2.243-173.993-3.038-182.71
			c-0.795-8.717,3.3-9.572,8.354-11.036c5.055-1.464,47.274-4.247,109.36-2.664c71.204,2.527,150.642,5.626,189.11,6.469
			c52.163,2.023,167.156-6.209,324.823-2.283c9.546,0.113,35.915-2.716,39.113,11.797c3.198,14.513-4.978,195.125-4.978,227.772
			C708.591,319.098,718.496,395.792,710.531,406.75z"/>
</svg>
